<svg width="16" height="16" viewBox="0 0 16 16" fill="none" xmlns="http://www.w3.org/2000/svg">
<path d="M9.33464 3.99992V11.9999C9.33464 12.3099 9.33464 12.4649 9.30057 12.5921C9.2081 12.9372 8.93857 13.2067 8.59344 13.2992C8.4663 13.3333 8.3113 13.3333 8.0013 13.3333C7.6913 13.3333 7.5363 13.3333 7.40917 13.2992C7.06404 13.2067 6.7945 12.9372 6.70204 12.5921C6.66797 12.4649 6.66797 12.3099 6.66797 11.9999V3.99992C6.66797 3.68992 6.66797 3.53492 6.70204 3.40778C6.7945 3.06265 7.06404 2.79312 7.40917 2.70065C7.5363 2.66658 7.6913 2.66658 8.0013 2.66658C8.3113 2.66658 8.4663 2.66658 8.59344 2.70065C8.93857 2.79312 9.2081 3.06265 9.30057 3.40778C9.33464 3.53492 9.33464 3.68992 9.33464 3.99992Z" stroke="#FFCB2B" stroke-width="1.5" stroke-linecap="round" stroke-linejoin="round"/>
<path d="M13.9987 10.6666V11.9999C13.9987 12.3099 13.9987 12.4649 13.9646 12.5921C13.8722 12.9372 13.6026 13.2067 13.2575 13.2992C13.1304 13.3333 12.9754 13.3333 12.6654 13.3333C12.3554 13.3333 12.2004 13.3333 12.0732 13.2992C11.7281 13.2067 11.4586 12.9372 11.3661 12.5921C11.332 12.4649 11.332 12.3099 11.332 11.9999V10.6666C11.332 10.3566 11.332 10.2016 11.3661 10.0744C11.4586 9.72934 11.7281 9.45979 12.0732 9.36733C12.2004 9.33325 12.3554 9.33325 12.6654 9.33325C12.9754 9.33325 13.1304 9.33325 13.2575 9.36733C13.6026 9.45979 13.8722 9.72934 13.9646 10.0744C13.9987 10.2016 13.9987 10.3566 13.9987 10.6666Z" stroke="#FFCB2B" stroke-width="1.5" stroke-linecap="round" stroke-linejoin="round"/>
<path d="M4.66667 7.99992V11.9999C4.66667 12.3099 4.66667 12.4649 4.63259 12.5921C4.54013 12.9372 4.27058 13.2067 3.92549 13.2992C3.79832 13.3333 3.64333 13.3333 3.33333 13.3333C3.02334 13.3333 2.86835 13.3333 2.74118 13.2992C2.39609 13.2067 2.12654 12.9372 2.03407 12.5921C2 12.4649 2 12.3099 2 11.9999V7.99992C2 7.68992 2 7.53492 2.03407 7.40779C2.12654 7.06265 2.39609 6.79312 2.74118 6.70065C2.86835 6.66659 3.02334 6.66659 3.33333 6.66659C3.64333 6.66659 3.79832 6.66659 3.92549 6.70065C4.27058 6.79312 4.54013 7.06265 4.63259 7.40779C4.66667 7.53492 4.66667 7.68992 4.66667 7.99992Z" stroke="#FFCB2B" stroke-width="1.5" stroke-linecap="round" stroke-linejoin="round"/>
</svg>
