<svg width="40" height="40" viewBox="0 0 40 40" fill="none" xmlns="http://www.w3.org/2000/svg">
<path d="M19.9992 1.24951C19.8545 1.24928 19.7142 1.29939 19.6023 1.39125C19.6023 1.39125 15.6267 4.68895 15.6267 10.0017C15.6267 10.3135 15.6361 10.6158 15.6526 10.9088C15.1914 11.252 14.7947 11.6743 14.481 12.156C13.7841 13.2001 13.125 14.8962 13.125 17.5018C13.125 18.1632 14.0156 18.3711 14.3109 17.7805C14.3109 17.7805 15.0337 16.3207 16.8385 15.8057C17.2566 16.7293 17.6275 17.2538 17.6275 17.2538C17.7456 17.4097 17.9299 17.5018 18.1236 17.5018H21.8748C22.0709 17.5018 22.2551 17.4073 22.3733 17.2514C22.3733 17.2514 22.7441 16.7293 23.1646 15.8033C24.9694 16.3183 25.6922 17.7805 25.6922 17.7805C25.9899 18.3711 26.8781 18.1609 26.8781 17.5018C26.8781 14.8986 26.219 13.2001 25.5221 12.156C25.2081 11.6724 24.8105 11.2485 24.3481 10.904C24.3646 10.6111 24.3764 10.3111 24.3764 9.99929C24.3764 4.68659 20.4008 1.39361 20.4008 1.39361C20.2888 1.30192 20.1486 1.25184 20.0039 1.25187H20.0016L19.9992 1.24951ZM19.9992 2.74246C20.2472 2.96923 20.7787 3.53853 21.3315 4.37241H18.6669C19.222 3.5409 19.7535 2.97159 19.9992 2.74246ZM8.18321 24.9996H2.49963V6.87403C2.49963 6.51497 2.77129 6.2504 3.12799 6.2504H14.3723C15.2251 6.2693 15.2251 4.9984 14.3723 4.9984H3.12799C2.6309 5.00027 2.15466 5.1984 1.80294 5.54968C1.45122 5.90096 1.25249 6.37694 1.25 6.87403V29.3745C1.25 30.4021 2.10041 31.2477 3.12799 31.2477H36.8775C37.3735 31.2453 37.8486 31.0471 38.1993 30.6963C38.5501 30.3456 38.7483 29.8705 38.7507 29.3745V6.87403C38.7483 6.37798 38.5501 5.90295 38.1993 5.55218C37.8486 5.20141 37.3735 5.00325 36.8775 5.00077H25.6261C24.7757 4.98187 24.7757 6.2504 25.6261 6.2504H36.8775C37.2342 6.2504 37.4987 6.51497 37.4987 6.87403V24.9996H31.8199C31.7222 24.4327 31.4957 23.8958 31.1578 23.4302C30.82 22.9647 30.3797 22.5829 29.871 22.3143C29.3624 22.0457 28.7988 21.8974 28.2238 21.8809C27.6488 21.8645 27.0777 21.9802 26.5544 22.2192C26.34 21.7434 26.0293 21.3171 25.6418 20.9675C25.2543 20.6178 24.7985 20.3523 24.3032 20.1877C24.2303 20.1627 24.1534 20.1515 24.0764 20.1546C23.3748 20.1806 23.2426 21.1633 23.9111 21.3759C24.7544 21.6546 25.4111 22.3704 25.5836 23.2893C25.6039 23.3947 25.651 23.4931 25.7204 23.575C25.7898 23.6569 25.879 23.7196 25.9796 23.7571C26.0802 23.7946 26.1887 23.8056 26.2947 23.789C26.4008 23.7724 26.5008 23.7289 26.5851 23.6626C26.9101 23.4033 27.2949 23.2297 27.7043 23.1579C28.1137 23.086 28.5347 23.118 28.9285 23.2511C29.3223 23.3842 29.6764 23.614 29.9583 23.9195C30.2402 24.225 30.4409 24.5964 30.5419 24.9996H9.46119C9.56207 24.596 9.76276 24.2242 10.0448 23.9183C10.3269 23.6125 10.6813 23.3825 11.0755 23.2494C11.4696 23.1163 11.8909 23.0843 12.3006 23.1565C12.7104 23.2287 13.0954 23.4027 13.4203 23.6626C13.5048 23.7289 13.605 23.7724 13.7112 23.7888C13.8174 23.8053 13.9261 23.7941 14.0267 23.7563C14.1273 23.7186 14.2165 23.6556 14.2858 23.5734C14.355 23.4912 14.4019 23.3925 14.4219 23.287C14.5944 22.3704 15.2487 21.6546 16.0944 21.3735C16.7629 21.1633 16.6283 20.1806 15.929 20.1546C15.8521 20.152 15.7753 20.1632 15.7023 20.1877C15.2065 20.352 14.7503 20.6174 14.3624 20.9671C13.9745 21.3167 13.6633 21.7431 13.4487 22.2192C12.9253 21.9797 12.354 21.8636 11.7787 21.8799C11.2034 21.8961 10.6395 22.0443 10.1305 22.3129C9.6215 22.5816 9.181 22.9635 8.84298 23.4294C8.50495 23.8952 8.28078 24.4324 8.18321 24.9996ZM17.9535 5.6244H22.0425C22.7381 6.97705 23.1078 8.47361 23.1221 9.99457C23.1221 13.8805 21.726 15.9333 21.5016 16.2474H18.4968C18.2747 15.9356 16.8787 13.8828 16.8787 9.99693C16.8787 8.28666 17.3653 6.81025 17.9582 5.6244H17.9535ZM19.9968 8.12366C19.5006 8.12553 19.0252 8.32349 18.6743 8.67439C18.3234 9.02529 18.1254 9.50068 18.1236 9.99693C18.1236 11.0269 18.9669 11.8749 19.9968 11.8749C20.4939 11.8718 20.9698 11.673 21.3213 11.3214C21.6729 10.9699 21.8717 10.494 21.8748 9.99693C21.8711 9.50044 21.6719 9.02542 21.3204 8.67478C20.9688 8.32414 20.4933 8.12614 19.9968 8.12366ZM19.9968 9.37566C20.0791 9.37407 20.1608 9.38902 20.2372 9.41962C20.3135 9.45022 20.3829 9.49585 20.4413 9.55379C20.4997 9.61174 20.5459 9.68082 20.577 9.75694C20.6082 9.83307 20.6238 9.91467 20.6228 9.99693C20.6228 10.3513 20.3488 10.6253 19.9968 10.6253C19.9142 10.6266 19.8321 10.6112 19.7556 10.58C19.679 10.5488 19.6095 10.5025 19.5513 10.4438C19.4931 10.3852 19.4473 10.3153 19.4167 10.2385C19.3861 10.1618 19.3713 10.0796 19.3732 9.99693C19.3732 9.64495 19.6425 9.37566 19.9968 9.37566ZM24.1709 12.4442C24.2701 12.5623 24.3694 12.6828 24.478 12.8458C24.856 13.4127 25.2434 14.2372 25.4867 15.6403C24.9319 15.1913 24.2971 14.8515 23.6158 14.6388C23.8308 14.0057 24.0316 13.2852 24.1709 12.4442ZM15.8227 12.4442C15.9645 13.2852 16.1629 14.0057 16.3779 14.6411C15.6172 14.8773 14.9841 15.2553 14.5117 15.6403C14.7526 14.2372 15.1424 13.4104 15.518 12.8458C15.6267 12.6828 15.7235 12.5623 15.8227 12.4442ZM18.1236 18.7491C17.8117 18.7491 17.4999 18.9569 17.4999 19.3727C17.4999 22.2192 19.6496 23.646 19.6496 23.646C19.7527 23.7151 19.8739 23.752 19.998 23.752C20.1221 23.752 20.2434 23.7151 20.3464 23.646C20.3464 23.646 22.4961 22.2192 22.4961 19.3727C22.4961 18.9569 22.1843 18.7491 21.8725 18.7491C21.5606 18.7491 21.2465 18.9569 21.2465 19.3727C21.2465 21.083 20.2567 22.042 19.9992 22.3019C19.7393 22.042 18.7496 21.083 18.7496 19.3727C18.7496 18.9569 18.4377 18.7491 18.1236 18.7491ZM2.49727 26.2516H37.4964V29.3745C37.4987 29.4568 37.4841 29.5387 37.4538 29.6152C37.4234 29.6918 37.3777 29.7613 37.3196 29.8197C37.2615 29.878 37.1921 29.9239 37.1157 29.9546C37.0393 29.9853 36.9574 30.0001 36.8751 29.9981H3.12799C3.04517 30.0007 2.96269 29.9864 2.8856 29.956C2.8085 29.9257 2.73841 29.8799 2.6796 29.8215C2.62078 29.7632 2.57449 29.6934 2.54355 29.6165C2.51261 29.5397 2.49766 29.4573 2.49963 29.3745L2.49727 26.2516ZM21.2819 27.5012H18.7188C17.9228 27.5957 17.9771 28.7249 18.7496 28.7461H21.2512C22.1087 28.8241 22.1795 27.5177 21.2843 27.5012H21.2819ZM16.4912 32.4501C16.3686 32.4476 16.2479 32.4812 16.1441 32.5467C16.0404 32.6122 15.9582 32.7068 15.9078 32.8186C15.6078 33.4635 15.0692 34.2171 14.1361 34.999H13.1227C12.6264 35.0027 12.1516 35.202 11.8014 35.5536C11.4511 35.9052 11.2536 36.3807 11.2518 36.877V38.1219C11.2494 38.4668 11.5282 38.7479 11.873 38.7503H28.123C28.2054 38.7503 28.287 38.734 28.3631 38.7024C28.4392 38.6708 28.5083 38.6245 28.5665 38.5661C28.6246 38.5077 28.6707 38.4384 28.702 38.3622C28.7333 38.286 28.7493 38.2043 28.749 38.1219V36.877C28.7459 36.3803 28.5474 35.9048 28.1963 35.5533C27.8453 35.2018 27.3701 35.0027 26.8733 34.999H25.8576C24.9292 34.2195 24.3883 33.4635 24.0859 32.8186C24.0549 32.7387 24.0078 32.6659 23.9475 32.6049C23.8872 32.5439 23.815 32.4959 23.7354 32.464C23.6558 32.432 23.5705 32.4167 23.4848 32.4191C23.3991 32.4215 23.3147 32.4415 23.237 32.4778C23.1593 32.5142 23.0899 32.5661 23.0331 32.6303C22.9763 32.6946 22.9333 32.7699 22.9068 32.8514C22.8803 32.933 22.8709 33.0192 22.8791 33.1046C22.8872 33.1899 22.9129 33.2727 22.9544 33.3478C23.1977 33.8675 23.5686 34.4297 24.0717 34.999H15.9267C16.4275 34.4321 16.8007 33.8698 17.044 33.3454C17.0895 33.251 17.1106 33.1467 17.1053 33.0421C17.1 32.9374 17.0685 32.8357 17.0138 32.7464C16.959 32.6571 16.8827 32.5829 16.7918 32.5307C16.7009 32.4786 16.5984 32.45 16.4936 32.4478L16.4912 32.4501ZM13.1227 36.2486H26.871C26.954 36.2467 27.0366 36.2616 27.1137 36.2925C27.1908 36.3234 27.2609 36.3696 27.3196 36.4284C27.3784 36.4871 27.4246 36.5571 27.4555 36.6342C27.4864 36.7114 27.5013 36.7939 27.4993 36.877V37.5006H12.499V36.877C12.499 36.5203 12.766 36.2486 13.1227 36.2486Z" fill="#1CA5FF"/>
</svg>
