<svg width="50" height="50" viewBox="0 0 50 50" fill="none" xmlns="http://www.w3.org/2000/svg">
<rect x="0.5" y="0.5" width="49" height="49" rx="7.5" fill="#9AECFF" fill-opacity="0.2"/>
<rect x="0.5" y="0.5" width="49" height="49" rx="7.5" stroke="url(#paint0_linear_1469_475)"/>
<path d="M24.36 33.24C23.5467 33.24 22.7733 33.0933 22.04 32.8C21.32 32.4933 20.7 32.0667 20.18 31.52C19.6733 30.96 19.3267 30.3 19.14 29.54L21.52 28.7C21.76 29.38 22.1267 29.9 22.62 30.26C23.1133 30.6067 23.6933 30.78 24.36 30.78C24.8933 30.78 25.3533 30.68 25.74 30.48C26.14 30.28 26.4533 29.9933 26.68 29.62C26.9067 29.2333 27.02 28.78 27.02 28.26C27.02 27.74 26.9067 27.3 26.68 26.94C26.4667 26.5667 26.16 26.28 25.76 26.08C25.36 25.88 24.8867 25.78 24.34 25.78C24.0867 25.78 23.82 25.8067 23.54 25.86C23.2733 25.9133 23.0333 25.9933 22.82 26.1L22.2 24.8L26.06 20.4H19.98V18.1H29.12V20.24L25.24 24.78L25.28 23.76C26.1733 23.7733 26.9533 23.9667 27.62 24.34C28.2867 24.7133 28.8067 25.2267 29.18 25.88C29.5533 26.5333 29.74 27.3 29.74 28.18C29.74 29.14 29.5067 30.0067 29.04 30.78C28.5733 31.54 27.9333 32.14 27.12 32.58C26.3067 33.02 25.3867 33.24 24.36 33.24Z" fill="#19A3FF"/>
<defs>
<linearGradient id="paint0_linear_1469_475" x1="25" y1="0" x2="25" y2="50" gradientUnits="userSpaceOnUse">
<stop stop-color="#9AECFF" stop-opacity="0.45"/>
<stop offset="1" stop-color="#9AECFF" stop-opacity="0.2"/>
</linearGradient>
</defs>
</svg>
