<svg width="16" height="16" viewBox="0 0 16 16" fill="none" xmlns="http://www.w3.org/2000/svg">
<g clip-path="url(#clip0_1536_4672)">
<path d="M1.33398 13C1.33398 12.2146 1.33398 11.8213 1.62732 11.5773C1.91932 11.3333 2.39065 11.3333 3.33398 11.3333C4.27732 11.3333 4.74798 11.3333 5.04065 11.5773C5.33332 11.8213 5.33398 12.2146 5.33398 13C5.33398 13.7853 5.33398 14.1786 5.04065 14.4226C4.74865 14.6666 4.27732 14.6666 3.33398 14.6666C2.39065 14.6666 1.91998 14.6666 1.62732 14.4226C1.33465 14.1786 1.33398 13.7853 1.33398 13ZM10.6673 13C10.6673 12.2146 10.6673 11.8213 10.9607 11.5773C11.2527 11.3333 11.724 11.3333 12.6673 11.3333C13.6107 11.3333 14.0813 11.3333 14.374 11.5773C14.6666 11.8213 14.6673 12.2146 14.6673 13C14.6673 13.7853 14.6673 14.1786 14.374 14.4226C14.082 14.6666 13.6107 14.6666 12.6673 14.6666C11.724 14.6666 11.2533 14.6666 10.9607 14.4226C10.668 14.1786 10.6673 13.7853 10.6673 13Z" stroke="#1CA5FF" stroke-width="1.5"/>
<path d="M12.6673 11.3333C12.6673 9.67865 12.1713 9.33331 9.79532 9.33331H6.20598C3.82998 9.33331 3.33398 9.67865 3.33398 11.3333" stroke="#1CA5FF" stroke-width="1.5" stroke-linecap="round" stroke-linejoin="round"/>
<path d="M8 4.33331L8.66667 3.33331M11 4.33331C11 5.12896 10.6839 5.89202 10.1213 6.45463C9.55871 7.01724 8.79565 7.33331 8 7.33331C7.20435 7.33331 6.44129 7.01724 5.87868 6.45463C5.31607 5.89202 5 5.12896 5 4.33331C5 3.53766 5.31607 2.7746 5.87868 2.21199C6.44129 1.64938 7.20435 1.33331 8 1.33331C8.79565 1.33331 9.55871 1.64938 10.1213 2.21199C10.6839 2.7746 11 3.53766 11 4.33331Z" stroke="#1CA5FF" stroke-width="1.5" stroke-linecap="round"/>
</g>
<defs>
<clipPath id="clip0_1536_4672">
<rect width="16" height="16" fill="white"/>
</clipPath>
</defs>
</svg>
