<svg width="40" height="40" viewBox="0 0 40 40" fill="none" xmlns="http://www.w3.org/2000/svg">
<path d="M8.16094 20.7218C9.21562 20.7218 10.0742 19.8632 10.0742 18.8085C10.0742 18.4843 9.99297 18.1789 9.85 17.9109L12.9273 15.1226C13.2409 15.3321 13.6096 15.4439 13.9867 15.4437C14.5117 15.4437 14.9883 15.2312 15.3344 14.8875L17.9813 16.4781C17.9268 16.6577 17.8992 16.8443 17.8992 17.032C17.8992 18.0867 18.7578 18.9453 19.8125 18.9453C20.8672 18.9453 21.7258 18.0867 21.7258 17.032C21.7258 16.6953 21.6383 16.3796 21.4852 16.1046L24.607 13.1734C24.9047 13.3648 25.2586 13.4757 25.6375 13.4757C26.6922 13.4757 27.5508 12.6171 27.5508 11.5625C27.5508 10.5078 26.6922 9.64917 25.6375 9.64917C24.5828 9.64917 23.7242 10.5078 23.7242 11.5625C23.7242 11.8992 23.8117 12.2148 23.9648 12.4898L20.843 15.421C20.5357 15.2232 20.1779 15.1183 19.8125 15.1187C19.2875 15.1187 18.8109 15.3312 18.4648 15.675L15.818 14.0843C15.8724 13.9047 15.9 13.7181 15.9 13.5304C15.9 12.4757 15.0414 11.6171 13.9867 11.6171C12.932 11.6171 12.0734 12.4757 12.0734 13.5304C12.0734 13.8546 12.1547 14.1601 12.2977 14.4281L9.22031 17.2164C8.90674 17.0069 8.53806 16.8951 8.16094 16.8953C7.10625 16.8953 6.24766 17.7539 6.24766 18.8085C6.24766 19.8632 7.10625 20.7218 8.16094 20.7218ZM25.6383 10.5859C26.1766 10.5859 26.6141 11.0234 26.6141 11.5617C26.6141 12.1 26.1766 12.5375 25.6383 12.5375C25.1 12.5375 24.6625 12.1 24.6625 11.5617C24.6625 11.0234 25.1 10.5859 25.6383 10.5859ZM19.8125 16.0554C20.3508 16.0554 20.7883 16.4929 20.7883 17.0312C20.7883 17.5695 20.3508 18.007 19.8125 18.007C19.2742 18.007 18.8367 17.5695 18.8367 17.0312C18.8367 16.4929 19.2742 16.0554 19.8125 16.0554ZM13.9867 12.5539C14.525 12.5539 14.9625 12.9914 14.9625 13.5296C14.9625 14.0679 14.525 14.5054 13.9867 14.5054C13.4484 14.5054 13.0109 14.0679 13.0109 13.5296C13.0109 12.9914 13.4492 12.5539 13.9867 12.5539ZM8.16094 17.8328C8.69922 17.8328 9.13672 18.2703 9.13672 18.8085C9.13672 19.3468 8.69922 19.7843 8.16094 19.7843C7.62266 19.7843 7.18516 19.3468 7.18516 18.8085C7.18516 18.2703 7.62344 17.8328 8.16094 17.8328ZM32.6281 17.3164V6.40308C32.6281 6.14448 32.418 5.93433 32.1594 5.93433H1.64062C1.38203 5.93433 1.17188 6.14448 1.17188 6.40308V27.6554C1.17188 27.914 1.38203 28.1242 1.64062 28.1242H14.157V30.3679H8.99219C8.73359 30.3679 8.52344 30.5781 8.52344 30.8367V33.5976C8.52344 33.8562 8.73359 34.0664 8.99219 34.0664H24.8062C25.0648 34.0664 25.275 33.8562 25.275 33.5976V30.8367C25.275 30.5781 25.0648 30.3679 24.8062 30.3679H19.6414V28.1242H26.9484C28.1719 29.6539 30.0516 30.6367 32.1578 30.6367C35.8352 30.6367 38.8273 27.6453 38.8273 23.9679C38.8281 20.4476 36.0867 17.5578 32.6281 17.3164ZM31.6906 6.87183V17.3171C28.3867 17.5476 25.7391 20.1953 25.5086 23.4992H2.10938V6.87183H31.6906ZM24.3383 33.1281H9.46172V31.3046H24.3383V33.1281ZM18.7047 30.3679H15.0945V28.1242H18.7047V30.3679ZM2.10938 27.1859V24.4359H25.5078C25.5747 25.4009 25.852 26.3395 26.3203 27.1859H2.10938ZM32.1586 29.6984C28.9984 29.6984 26.4273 27.1273 26.4273 23.9671C26.4273 20.807 28.9984 18.2359 32.1586 18.2359C35.3188 18.2359 37.8906 20.807 37.8906 23.9671C37.8906 27.1273 35.3195 29.6984 32.1586 29.6984ZM34.8125 23.9671C34.8125 24.2257 34.6023 24.4359 34.3438 24.4359H32.1586C31.9 24.4359 31.6898 24.2257 31.6898 23.9671V20.7242C31.6898 20.4656 31.9 20.2554 32.1586 20.2554C32.4172 20.2554 32.6273 20.4656 32.6273 20.7242V23.4984H34.3438C34.6031 23.4984 34.8125 23.7085 34.8125 23.9671Z" fill="#38B7FF"/>
</svg>
